<svg xmlns="http://www.w3.org/2000/svg" x="0px" y="0px"
width="24" height="24"
viewBox="0 0 172 172"
style=" fill:#000000;"><g fill="none" fill-rule="nonzero" stroke="none" stroke-width="1" stroke-linecap="butt" stroke-linejoin="miter" stroke-miterlimit="10" stroke-dasharray="" stroke-dashoffset="0" font-family="none" font-weight="none" font-size="none" text-anchor="none" style="mix-blend-mode: normal"><path d="M0,172v-172h172v172z" fill="none"></path><path d="M30.96,172c-17.09874,0 -30.96,-13.86126 -30.96,-30.96v-110.08c0,-17.09874 13.86126,-30.96 30.96,-30.96h110.08c17.09874,0 30.96,13.86126 30.96,30.96v110.08c0,17.09874 -13.86126,30.96 -30.96,30.96z" fill="none"></path><path d="M34.4,168.56c-17.09874,0 -30.96,-13.86126 -30.96,-30.96v-103.2c0,-17.09874 13.86126,-30.96 30.96,-30.96h103.2c17.09874,0 30.96,13.86126 30.96,30.96v103.2c0,17.09874 -13.86126,30.96 -30.96,30.96z" fill="none"></path><path d="M30.96,172c-17.09874,0 -30.96,-13.86126 -30.96,-30.96v-110.08c0,-17.09874 13.86126,-30.96 30.96,-30.96h110.08c17.09874,0 30.96,13.86126 30.96,30.96v110.08c0,17.09874 -13.86126,30.96 -30.96,30.96z" fill="none"></path><path d="M34.4,168.56c-17.09874,0 -30.96,-13.86126 -30.96,-30.96v-103.2c0,-17.09874 13.86126,-30.96 30.96,-30.96h103.2c17.09874,0 30.96,13.86126 30.96,30.96v103.2c0,17.09874 -13.86126,30.96 -30.96,30.96z" fill="none"></path><path d="M30.96,172c-17.09874,0 -30.96,-13.86126 -30.96,-30.96v-110.08c0,-17.09874 13.86126,-30.96 30.96,-30.96h110.08c17.09874,0 30.96,13.86126 30.96,30.96v110.08c0,17.09874 -13.86126,30.96 -30.96,30.96z" fill="none"></path><path d="M34.4,168.56c-17.09874,0 -30.96,-13.86126 -30.96,-30.96v-103.2c0,-17.09874 13.86126,-30.96 30.96,-30.96h103.2c17.09874,0 30.96,13.86126 30.96,30.96v103.2c0,17.09874 -13.86126,30.96 -30.96,30.96z" fill="none"></path><path d="M30.96,172c-17.09874,0 -30.96,-13.86126 -30.96,-30.96v-110.08c0,-17.09874 13.86126,-30.96 30.96,-30.96h110.08c17.09874,0 30.96,13.86126 30.96,30.96v110.08c0,17.09874 -13.86126,30.96 -30.96,30.96z" fill="none"></path><path d="M34.4,168.56c-17.09874,0 -30.96,-13.86126 -30.96,-30.96v-103.2c0,-17.09874 13.86126,-30.96 30.96,-30.96h103.2c17.09874,0 30.96,13.86126 30.96,30.96v103.2c0,17.09874 -13.86126,30.96 -30.96,30.96z" fill="none"></path><path d="M30.96,172c-17.09874,0 -30.96,-13.86126 -30.96,-30.96v-110.08c0,-17.09874 13.86126,-30.96 30.96,-30.96h110.08c17.09874,0 30.96,13.86126 30.96,30.96v110.08c0,17.09874 -13.86126,30.96 -30.96,30.96z" fill="none"></path><path d="M34.4,168.56c-17.09874,0 -30.96,-13.86126 -30.96,-30.96v-103.2c0,-17.09874 13.86126,-30.96 30.96,-30.96h103.2c17.09874,0 30.96,13.86126 30.96,30.96v103.2c0,17.09874 -13.86126,30.96 -30.96,30.96z" fill="none"></path><path d="M32.68,172c-18.04867,0 -32.68,-14.63133 -32.68,-32.68v-106.64c0,-18.04867 14.63133,-32.68 32.68,-32.68h106.64c18.04867,0 32.68,14.63133 32.68,32.68v106.64c0,18.04867 -14.63133,32.68 -32.68,32.68z" fill="none"></path><path d="M36.12,168.56c-18.04867,0 -32.68,-14.63133 -32.68,-32.68v-99.76c0,-18.04867 14.63133,-32.68 32.68,-32.68h99.76c18.04867,0 32.68,14.63133 32.68,32.68v99.76c0,18.04867 -14.63133,32.68 -32.68,32.68z" fill="none"></path><path d="M26.66,172c-14.72391,0 -26.66,-11.93609 -26.66,-26.66v-118.68c0,-14.72391 11.93609,-26.66 26.66,-26.66h118.68c14.72391,0 26.66,11.93609 26.66,26.66v118.68c0,14.72391 -11.93609,26.66 -26.66,26.66z" fill="none"></path><path d="M30.1,168.56c-14.72391,0 -26.66,-11.93609 -26.66,-26.66v-111.8c0,-14.72391 11.93609,-26.66 26.66,-26.66h111.8c14.72391,0 26.66,11.93609 26.66,26.66v111.8c0,14.72391 -11.93609,26.66 -26.66,26.66z" fill="none"></path><path d="M12.04,172c-6.64951,0 -12.04,-5.39049 -12.04,-12.04v-147.92c0,-6.64951 5.39049,-12.04 12.04,-12.04h147.92c6.64951,0 12.04,5.39049 12.04,12.04v147.92c0,6.64951 -5.39049,12.04 -12.04,12.04z" fill="none"></path><path d="M15.48,168.56c-6.64951,0 -12.04,-5.39049 -12.04,-12.04v-141.04c0,-6.64951 5.39049,-12.04 12.04,-12.04h141.04c6.64951,0 12.04,5.39049 12.04,12.04v141.04c0,6.64951 -5.39049,12.04 -12.04,12.04z" fill="none"></path><path d="M9.46,172c-5.22461,0 -9.46,-4.23539 -9.46,-9.46v-153.08c0,-5.22461 4.23539,-9.46 9.46,-9.46h153.08c5.22461,0 9.46,4.23539 9.46,9.46v153.08c0,5.22461 -4.23539,9.46 -9.46,9.46z" fill="none"></path><path d="M12.9,168.56c-5.22461,0 -9.46,-4.23539 -9.46,-9.46v-146.2c0,-5.22461 4.23539,-9.46 9.46,-9.46h146.2c5.22461,0 9.46,4.23539 9.46,9.46v146.2c0,5.22461 -4.23539,9.46 -9.46,9.46z" fill="none"></path><path d="M5.16,172c-2.84979,0 -5.16,-2.31021 -5.16,-5.16v-161.68c0,-2.84979 2.31021,-5.16 5.16,-5.16h161.68c2.84979,0 5.16,2.31021 5.16,5.16v161.68c0,2.84979 -2.31021,5.16 -5.16,5.16z" fill="none"></path><path d="M8.6,168.56c-2.84979,0 -5.16,-2.31021 -5.16,-5.16v-154.8c0,-2.84979 2.31021,-5.16 5.16,-5.16h154.8c2.84979,0 5.16,2.31021 5.16,5.16v154.8c0,2.84979 -2.31021,5.16 -5.16,5.16z" fill="none"></path><path d="M4.3,172c-2.37482,0 -4.3,-1.92518 -4.3,-4.3v-163.4c0,-2.37482 1.92518,-4.3 4.3,-4.3h163.4c2.37482,0 4.3,1.92518 4.3,4.3v163.4c0,2.37482 -1.92518,4.3 -4.3,4.3z" fill="none"></path><path d="M7.74,168.56c-2.37482,0 -4.3,-1.92518 -4.3,-4.3v-156.52c0,-2.37482 1.92518,-4.3 4.3,-4.3h156.52c2.37482,0 4.3,1.92518 4.3,4.3v156.52c0,2.37482 -1.92518,4.3 -4.3,4.3z" fill="none"></path><path d="M0.86,172c-0.47496,0 -0.86,-0.38504 -0.86,-0.86v-170.28c0,-0.47496 0.38504,-0.86 0.86,-0.86h170.28c0.47496,0 0.86,0.38504 0.86,0.86v170.28c0,0.47496 -0.38504,0.86 -0.86,0.86z" fill="none"></path><path d="M4.3,168.56c-0.47496,0 -0.86,-0.38504 -0.86,-0.86v-163.4c0,-0.47496 0.38504,-0.86 0.86,-0.86h163.4c0.47496,0 0.86,0.38504 0.86,0.86v163.4c0,0.47496 -0.38504,0.86 -0.86,0.86z" fill="none"></path><path d="M0,172v-172h172v172z" fill="none"></path><path d="M3.44,168.56v-165.12h165.12v165.12z" fill="none"></path><path d="M0,172v-172h172v172z" fill="none"></path><path d="M6.88,165.12v-158.24h158.24v158.24z" fill="none"></path><path d="M0,172v-172h172v172z" fill="none"></path><path d="M10.32,161.68v-151.36h151.36v151.36z" fill="none"></path><path d="M0,172v-172h172v172z" fill="none"></path><path d="M6.88,165.12v-158.24h158.24v158.24z" fill="none"></path><path d="M0,172v-172h172v172z" fill="none"></path><path d="M10.32,161.68v-151.36h151.36v151.36z" fill="none"></path><path d="M0,172v-172h172v172z" fill="none"></path><path d="M6.88,165.12v-158.24h158.24v158.24z" fill="none"></path><path d="M0,172v-172h172v172z" fill="none"></path><path d="M6.88,165.12v-158.24h158.24v158.24z" fill="none"></path><g fill="#000000"><path d="M72.24,0c-5.65719,0 -10.32,4.66281 -10.32,10.32v3.44h-28.595c-4.20594,0 -7.02781,3.07719 -8.4925,6.88h-0.43c-7.74,0 -14.0825,6.42313 -14.0825,14.405v2.795c0,1.89469 1.54531,3.44 3.44,3.44h3.87l17.5225,119.54c0.92719,6.49031 6.5575,11.18 13.0075,11.18h75.68c6.45,0 11.69063,-4.79719 13.0075,-10.965c0,-0.06719 0,-0.14781 0,-0.215l17.5225,-119.54h3.87c1.89469,0 3.44,-1.54531 3.44,-3.44v-2.795c0,-7.98187 -6.3425,-14.405 -14.0825,-14.405h-0.43c-1.46469,-3.80281 -4.28656,-6.88 -8.4925,-6.88h-28.595v-3.44c0,-5.65719 -4.66281,-10.32 -10.32,-10.32zM72.24,6.88h27.52c1.90813,0 3.44,1.53188 3.44,3.44v3.44h-34.4v-3.44c0,-1.90812 1.53188,-3.44 3.44,-3.44zM33.325,20.64h105.35c1.37063,0 3.01,1.53188 3.01,3.44c0,1.89469 1.54531,3.44 3.44,3.44h2.4725c3.72219,0 6.63813,2.87563 6.9875,6.88h-137.17c0.34938,-4.00437 3.26531,-6.88 6.9875,-6.88h2.4725c1.89469,0 3.44,-1.54531 3.44,-3.44c0,-1.90812 1.63938,-3.44 3.01,-3.44zM24.6175,41.28h122.765l-17.3075,118.25c-0.73906,3.45344 -3.06375,5.59 -6.235,5.59h-75.68c-3.17125,0 -5.79156,-2.13656 -6.235,-5.2675zM42.14,56.0075c-0.91375,0.13438 -1.74687,0.63156 -2.28437,1.37063c-0.55094,0.7525 -0.76594,1.69312 -0.61813,2.60687l11.395,85.6775c0.04031,1.31688 0.83313,2.48594 2.0425,3.02344c1.20938,0.5375 2.60688,0.33594 3.61469,-0.51062c1.00781,-0.86 1.43781,-2.20375 1.11531,-3.48031l-11.2875,-85.6775c-0.1075,-0.94062 -0.59125,-1.78719 -1.34375,-2.365c-0.7525,-0.56437 -1.70656,-0.79281 -2.63375,-0.645zM71.0575,56.0075c-1.77375,0.26875 -3.03687,1.86781 -2.9025,3.655l3.7625,85.6775c0.09406,1.89469 1.70656,3.37281 3.60125,3.27875c1.89469,-0.09406 3.37281,-1.70656 3.27875,-3.60125l-3.7625,-85.6775c-0.02687,-0.92719 -0.43,-1.81406 -1.11531,-2.44562c-0.69875,-0.61813 -1.6125,-0.94063 -2.53969,-0.88688c-0.1075,0 -0.215,0 -0.3225,0zM99.8675,56.0075c-1.65281,0.25531 -2.87562,1.66625 -2.9025,3.3325l-3.7625,85.6775c-0.09406,1.89469 1.38406,3.50719 3.27875,3.60125c1.89469,0.09406 3.50719,-1.38406 3.60125,-3.27875l3.7625,-85.6775c0.06719,-0.98094 -0.29562,-1.94844 -0.99437,-2.66062c-0.71219,-0.69875 -1.67969,-1.06156 -2.66063,-0.99438c-0.1075,0 -0.215,0 -0.3225,0zM128.785,56.0075c-1.53187,0.22844 -2.72781,1.46469 -2.9025,3.01l-11.2875,85.6775c-0.3225,1.27656 0.1075,2.62031 1.11531,3.48031c1.00781,0.84656 2.40531,1.04812 3.61469,0.51062c1.20938,-0.5375 2.00219,-1.70656 2.0425,-3.02344l11.395,-85.6775c0.16125,-1.03469 -0.14781,-2.09625 -0.86,-2.87562c-0.71219,-0.77938 -1.74687,-1.1825 -2.795,-1.10188c-0.1075,0 -0.215,0 -0.3225,0z"></path></g></g></svg>
